<svg width="240" height="240" viewBox="0 0 240 240" fill="none" xmlns="http://www.w3.org/2000/svg">
<rect width="240" height="240" rx="12" fill="white"/>
<g clip-path="url(#clip0_94_1042)">
<path d="M120.175 125.298C120.347 123.159 123.603 122.674 123.927 124.79C124.217 126.686 123.876 128.427 123.022 130.134C122.206 131.764 120.157 131.004 120.002 129.519C119.848 128.052 119.957 127.178 120.068 126.287C120.107 125.968 120.147 125.648 120.175 125.298Z" fill="#424257"/>
<path d="M144.96 124.35C145.414 123.755 146.069 123.349 146.855 123.579C149.308 124.296 148.585 127.78 147.724 129.476C147.255 130.397 145.742 130.631 145.058 129.82C143.944 128.497 143.409 125.856 144.826 124.554C144.865 124.486 144.908 124.418 144.96 124.35Z" fill="#424257"/>
<path d="M122.987 115.94L123.374 115.872C124.573 115.665 126.064 115.466 126.912 116.43C127.362 116.941 127.516 117.892 126.912 118.381C126.12 119.022 125.266 119.001 124.355 118.978C124.043 118.971 123.724 118.963 123.398 118.981C122.348 119.041 121.338 119.215 120.327 119.505C118.107 120.139 116.299 121.298 114.403 122.57C114.155 122.737 113.901 122.418 114.019 122.186C115.114 120.042 117.234 118.28 119.358 117.207C120.492 116.634 121.732 116.158 122.987 115.94Z" fill="#424257"/>
<path d="M133.309 153.953C131.922 153.387 130.683 152.442 129.778 151.236C129.464 150.816 129.382 150.373 129.448 149.968C129.522 149.512 129.792 149.099 130.159 148.822C130.528 148.545 130.989 148.408 131.434 148.477C131.822 148.538 132.207 148.75 132.512 149.19L132.576 149.278C133.114 150.007 133.816 150.604 134.615 150.989C135.385 151.361 136.246 151.534 137.137 151.433C138.835 151.241 140.005 150.323 141.249 149.076C141.403 148.918 141.557 148.756 141.712 148.591C141.81 148.441 141.946 148.345 142.097 148.295C142.264 148.238 142.453 148.242 142.627 148.302C142.795 148.361 142.944 148.472 143.044 148.619C143.14 148.759 143.194 148.932 143.176 149.131C143.062 150.423 142.387 151.577 141.427 152.482C140.362 153.488 138.949 154.185 137.619 154.428C136.154 154.697 134.661 154.505 133.309 153.953Z" fill="#424257"/>
<path d="M106.173 92.6231C106.483 92.4331 106.803 92.8021 106.649 93.0999C106.086 94.1893 105.232 95.1504 104.4 96.0881C104.131 96.3908 103.864 96.6913 103.61 96.9927C102.533 98.2713 101.463 99.557 100.396 100.845C98.2228 103.466 96.1021 106.136 94.065 108.865L93.5272 109.587C91.7362 111.997 89.967 114.445 88.4015 117.006C87.5824 118.345 86.8605 119.731 86.2051 121.157C85.9404 121.734 85.7361 122.36 85.5315 122.989C85.2537 123.841 84.9752 124.696 84.5435 125.431C84.4963 125.511 84.3501 125.505 84.332 125.403C84.1019 124.112 84.6222 122.572 85.0442 121.324C85.0712 121.244 85.0978 121.166 85.1238 121.088C85.6374 119.559 86.3682 118.101 87.1506 116.694C88.7825 113.759 90.7379 111.007 92.7023 108.289C94.6974 105.528 96.7687 102.824 98.9418 100.202C99.9624 98.9704 101.006 97.7634 102.081 96.5802L102.485 96.1376C102.681 95.925 102.877 95.7067 103.074 95.4864C104.014 94.4378 104.994 93.3449 106.173 92.6231Z" fill="#424257"/>
<path d="M100.956 88.3551C101.466 87.9762 101.901 88.7506 101.576 89.1611C100.108 91.0115 98.4884 92.7203 96.8672 94.4302C96.3402 94.9861 95.813 95.5421 95.291 96.1031C93.2475 98.2992 91.2942 100.578 89.4512 102.946C85.6931 107.774 82.6849 113.073 80.1371 118.626C80.0891 118.73 79.9379 118.652 79.9605 118.551C81.31 112.545 84.4651 107.089 88.0575 102.16L88.1942 101.973C91.8278 97.0166 96.0046 92.0339 100.956 88.3551Z" fill="#424257"/>
<path fill-rule="evenodd" clip-rule="evenodd" d="M111.099 66.6908C115.667 65.6209 120.457 65.8427 124.982 67.0185C133.95 69.3493 141.329 75.4104 147.448 82.1682C153.416 88.7597 158.337 96.316 161.932 104.456L162.113 104.87C164.656 110.673 166.865 116.704 166.96 123.093C167.042 128.592 166.488 134.321 164.715 139.551C163.137 144.211 160.233 148.906 155.237 150.023C154.588 151.675 153.8 153.277 152.887 154.808C153.185 156.599 153.404 158.956 152.954 160.606C152.201 163.364 150.84 165.981 149.119 168.277C147.537 170.386 145.544 172.139 143.075 173.108C139.852 174.373 136.009 174.018 132.647 173.691C128.447 173.282 124.32 172.348 120.327 170.996C118.329 170.322 116.368 169.545 114.437 168.703C114.155 168.581 113.87 168.459 113.584 168.336C111.944 167.632 110.255 166.907 108.74 165.997C107.444 165.217 106.309 164.059 105.232 162.96C105.039 162.763 104.847 162.567 104.656 162.376C103.228 160.942 101.823 159.464 100.51 157.914C100.43 157.958 100.348 157.995 100.268 158.025C98.8244 158.569 97.3326 157.159 96.2965 156.179C96.216 156.103 96.1383 156.03 96.0635 155.96C95.4169 155.356 94.8224 154.706 94.2711 154.019C93.7345 154.095 93.1944 154.134 92.6598 154.07C91.8315 153.972 91.0112 153.826 90.2043 153.614C83.5118 151.852 78.5581 146.283 75.8855 140.08C72.2974 131.753 72.3809 122.154 73.8725 113.347C76.5981 97.2548 85.4193 82.226 98.7394 72.7114C102.47 70.0467 106.606 67.7427 111.099 66.6908ZM96.4339 151.675C96.189 151.005 96.0025 150.295 95.8841 149.525C95.2623 145.471 95.8405 141.211 96.3925 137.144C96.4371 136.815 96.4816 136.487 96.5252 136.161C96.5418 136.024 96.7562 135.952 96.8015 136.093L96.7892 135.863C96.7747 135.536 97.2509 135.493 97.3396 135.789C98.424 139.377 100.195 142.644 102.741 145.403C105.915 148.842 109.887 151.328 113.839 153.801C114.252 154.06 114.666 154.318 115.078 154.578C115.224 154.44 115.402 154.343 115.589 154.306C116.218 151.475 118.298 148.844 120.355 147.053C124.051 143.839 129.111 141.749 134.193 141.352C133.742 141.089 133.277 140.782 132.799 140.427C131.594 139.455 133.053 137.314 134.352 138.146C134.417 138.197 134.486 138.25 134.558 138.306C136.017 139.434 138.687 141.499 140.568 139.524C142.245 137.174 139.869 134.964 138.311 134.016C137.902 133.723 138.226 132.752 139.099 132.902C144.218 133.782 144.318 139.789 141.022 141.916C141.862 142.136 142.685 142.416 143.482 142.757C146.634 144.109 149.29 146.475 151.02 149.443C151.19 149.734 151.351 150.032 151.504 150.334C151.756 149.791 151.994 149.241 152.216 148.685C152.169 148.518 152.141 148.347 152.141 148.181C152.141 147.789 152.328 147.564 152.532 147.318C152.695 147.121 152.87 146.911 152.972 146.592C153.202 145.87 153.406 145.139 153.577 144.4C153.963 142.727 154.178 141.03 154.308 139.319C154.356 138.688 154.37 138.039 154.384 137.385C154.401 136.6 154.418 135.807 154.494 135.029C154.443 133.887 154.373 132.746 154.27 131.607C153.937 127.938 153.266 124.278 151.971 120.82L151.957 120.782C151.945 120.808 151.931 120.827 151.918 120.843L151.901 120.864C151.899 120.867 151.896 120.871 151.894 120.874C151.891 120.878 151.889 120.881 151.886 120.884C151.849 120.935 151.803 120.999 151.633 121.053C151.579 121.04 151.525 121.026 151.469 121.012C150.769 120.828 150.215 120.575 149.677 120.312L149.096 120.026C148.42 119.694 147.74 119.375 147.018 119.14C145.477 118.637 143.893 118.283 142.284 118.094C141.935 118.053 141.6 117.935 141.335 117.734C141.083 117.542 140.891 117.277 140.803 116.924C140.69 116.468 140.723 116.123 140.967 115.711C141.151 115.402 141.414 115.188 141.717 115.065C142.025 114.94 142.376 114.91 142.724 114.98L143.021 115.041C145.828 115.628 149.365 116.724 151.245 119.086C149.948 116.289 148.15 113.781 145.977 111.57C143.316 108.862 140.345 106.501 137.376 104.141C134.092 101.531 130.809 98.9221 127.948 95.846L127.662 95.5361L127.643 95.5298L127.38 95.8006C126.791 96.4052 126.203 97.0097 125.614 97.6131L122.518 100.778C116.201 107.245 109.934 113.775 104.438 120.971C101.273 125.115 98.4294 129.458 95.9794 134.065C94.8193 136.246 93.7673 138.482 92.8165 140.763L92.4423 141.671C91.9971 142.758 91.516 143.975 91.2487 145.202C91.7753 145.725 92.2082 146.412 92.6274 147.076C92.8411 147.415 93.0513 147.748 93.2685 148.051C93.998 149.069 94.8392 150.039 95.7048 150.942C95.9418 151.19 96.185 151.435 96.4339 151.675ZM149.08 154.773C148.624 153.273 147.991 151.817 147.088 150.534C146.276 149.374 145.196 148.386 143.87 147.863C142.432 147.296 140.809 147.142 139.269 146.996C139.146 146.985 139.025 146.973 138.904 146.962C135.76 146.656 132.523 146.631 129.439 147.402C125.239 148.454 121.591 151.333 119.92 155.25C119.793 156.105 119.804 156.969 119.985 157.827C123.549 160.333 127.927 161.65 132.308 161.139C132.599 160.777 132.897 160.361 133.208 159.927C134.353 158.328 135.673 156.486 137.478 156.223C139.177 155.977 140.38 157.097 141.588 158.222C142.208 158.8 142.83 159.379 143.521 159.775C143.635 159.839 143.759 159.903 143.887 159.964C144.236 159.935 144.585 159.892 144.93 159.831C146.5 158.337 147.897 156.642 149.08 154.773ZM118.31 68.8435C109.705 68.389 101.859 72.8371 95.5651 78.374C84.1046 88.4555 77.0454 103.216 75.6253 118.374C74.8707 126.428 75.4354 135.109 79.6245 142.224C81.2498 144.985 83.3432 147.39 85.8142 149.419C88.1426 151.33 90.7967 152.432 93.6341 153.182C93.5049 153.003 93.3774 152.824 93.2534 152.641C92.5934 151.673 92.0691 150.643 91.6299 149.564C91.5912 149.603 91.5183 149.611 91.4752 149.552C89.6843 147.088 90.2448 144.149 91.0985 141.44C91.9935 138.598 93.128 135.833 94.4226 133.152C99.1419 123.379 106.161 114.864 113.447 106.919C116.785 103.28 120.222 99.7346 123.659 96.1896C124.054 95.7825 124.449 95.3753 124.843 94.968C126.756 92.9938 128.664 91.0138 130.548 89.0112C131.485 88.0142 132.417 87.012 133.34 86.0018C133.519 85.806 133.695 85.6079 133.87 85.4103C134.587 84.6001 135.297 83.7984 136.211 83.1969C137.117 82.6007 138.022 83.7402 137.598 84.5877C137.061 85.663 136.205 86.5545 135.365 87.4287C135.187 87.6142 135.009 87.799 134.836 87.9846L134.733 88.0943C133.767 89.14 132.792 90.1773 131.811 91.209C130.682 92.3955 129.545 93.5741 128.404 94.7495C128.763 94.7078 129.123 94.6727 129.484 94.6375C130.1 94.5774 130.718 94.5172 131.329 94.4242C132.642 94.2244 133.938 93.9298 135.227 93.6096C136.585 93.2724 137.926 92.8418 139.221 92.3066C139.574 92.1605 139.922 91.989 140.27 91.8171C141.12 91.3973 141.975 90.9757 142.924 90.9197C144.057 90.8528 144.41 92.2584 143.783 92.9981C142.98 93.9447 141.582 94.3582 140.374 94.7155C140.281 94.743 140.189 94.7701 140.099 94.7971L139.92 94.8511C138.522 95.2789 137.091 95.6001 135.644 95.8146C133.741 96.0971 131.541 96.2264 129.505 95.9373C133.274 98.1525 136.764 100.859 140.225 103.543C140.498 103.755 140.772 103.967 141.045 104.178L141.703 104.687C145.348 107.499 148.907 110.53 151.506 114.377C153.932 117.968 155.397 122.149 156.219 126.386C156.625 128.475 156.892 130.588 157.072 132.709C157.741 134.589 157.634 136.825 157.465 138.893L157.405 139.607L157.409 139.816C157.414 140.062 157.437 140.366 157.462 140.703C157.569 142.137 157.721 144.176 156.732 144.967C156.723 145.011 156.715 145.055 156.706 145.099C156.694 145.159 156.683 145.219 156.67 145.28C156.822 145.186 156.973 145.089 157.121 144.989C157.172 144.955 157.221 144.918 157.27 144.881L157.301 144.858L157.471 144.719L157.473 144.718C157.478 144.713 157.483 144.709 157.487 144.705C157.866 144.372 158.228 144.023 158.565 143.647C159.188 142.951 159.779 142.068 160.34 141.049C161.572 138.81 162.359 136.377 162.968 133.861C164.081 129.261 164.54 124.32 164.032 119.603C163.961 118.945 163.816 118.119 163.591 117.272C163.055 115.261 162.439 113.27 161.749 111.307C160.369 107.38 158.678 103.57 156.705 99.9054C152.699 92.4631 147.545 85.5824 141.369 79.8084C135.116 73.9609 127.005 69.3028 118.31 68.8435Z" fill="#424257"/>
</g>
<defs>
<clipPath id="clip0_94_1042">
<rect width="94.0645" height="108" fill="white" transform="translate(72.9033 66)"/>
</clipPath>
</defs>
</svg>
