<svg width="17" height="17" viewBox="0 0 17 17" fill="none" xmlns="http://www.w3.org/2000/svg">
<path d="M14.3538 8.77139L9.85375 13.4964C9.75993 13.5949 9.63268 13.6502 9.5 13.6502C9.36732 13.6502 9.24007 13.5949 9.14625 13.4964C9.05243 13.3979 8.99972 13.2643 8.99972 13.125C8.99972 12.9856 9.05243 12.852 9.14625 12.7535L12.7931 8.92495H3C2.86739 8.92495 2.74021 8.86964 2.64645 8.77118C2.55268 8.67272 2.5 8.53919 2.5 8.39995C2.5 8.26071 2.55268 8.12718 2.64645 8.02872C2.74021 7.93026 2.86739 7.87495 3 7.87495H12.7931L9.14625 4.04639C9.05243 3.94788 8.99972 3.81427 8.99972 3.67495C8.99972 3.53563 9.05243 3.40202 9.14625 3.30351C9.24007 3.205 9.36732 3.14966 9.5 3.14966C9.63268 3.14966 9.75993 3.205 9.85375 3.30351L14.3538 8.02851C14.4002 8.07727 14.4371 8.13517 14.4623 8.19891C14.4874 8.26264 14.5004 8.33096 14.5004 8.39995C14.5004 8.46894 14.4874 8.53726 14.4623 8.60099C14.4371 8.66473 14.4002 8.72263 14.3538 8.77139Z" fill="white"/>
</svg>
