<svg width="16" height="17" viewBox="0 0 16 17" fill="none" xmlns="http://www.w3.org/2000/svg">
<path d="M9.5 5.1001C9.5 4.96749 9.55268 4.84031 9.64645 4.74654C9.74021 4.65278 9.86739 4.6001 10 4.6001H14C14.1326 4.6001 14.2598 4.65278 14.3536 4.74654C14.4473 4.84031 14.5 4.96749 14.5 5.1001C14.5 5.23271 14.4473 5.35988 14.3536 5.45365C14.2598 5.54742 14.1326 5.6001 14 5.6001H10C9.86739 5.6001 9.74021 5.54742 9.64645 5.45365C9.55268 5.35988 9.5 5.23271 9.5 5.1001ZM8 9.9751C8 10.6713 7.72344 11.339 7.23116 11.8313C6.73887 12.3235 6.07119 12.6001 5.375 12.6001H1.5C1.36739 12.6001 1.24021 12.5474 1.14645 12.4537C1.05268 12.3599 1 12.2327 1 12.1001V4.1001C1 3.96749 1.05268 3.84031 1.14645 3.74654C1.24021 3.65278 1.36739 3.6001 1.5 3.6001H5.125C5.60321 3.60061 6.07014 3.74547 6.46466 4.01572C6.85919 4.28598 7.16294 4.66904 7.33617 5.11477C7.5094 5.56051 7.54404 6.04816 7.43555 6.5139C7.32706 6.97965 7.08049 7.40179 6.72813 7.7251C7.11621 7.95856 7.4373 8.28845 7.66017 8.68272C7.88304 9.07698 8.00011 9.5222 8 9.9751ZM2 7.3501H5.125C5.48967 7.3501 5.83941 7.20523 6.09727 6.94737C6.35513 6.68951 6.5 6.33977 6.5 5.9751C6.5 5.61042 6.35513 5.26069 6.09727 5.00283C5.83941 4.74496 5.48967 4.6001 5.125 4.6001H2V7.3501ZM7 9.9751C7 9.7617 6.95797 9.55039 6.8763 9.35324C6.79464 9.15608 6.67494 8.97694 6.52405 8.82605C6.37315 8.67515 6.19401 8.55546 5.99686 8.47379C5.79971 8.39213 5.5884 8.3501 5.375 8.3501H2V11.6001H5.375C5.5884 11.6001 5.79971 11.5581 5.99686 11.4764C6.19401 11.3947 6.37315 11.275 6.52405 11.1241C6.67494 10.9733 6.79464 10.7941 6.8763 10.597C6.95797 10.3998 7 10.1885 7 9.9751ZM15 9.6001C15 9.73271 14.9473 9.85988 14.8536 9.95365C14.7598 10.0474 14.6326 10.1001 14.5 10.1001H10.0625C10.1566 10.4649 10.3519 10.7958 10.6258 11.0545C10.8997 11.3132 11.2412 11.4893 11.6108 11.5624C11.9804 11.6356 12.3632 11.6028 12.715 11.468C13.0668 11.3331 13.3734 11.1016 13.5994 10.8001C13.6388 10.7476 13.6882 10.7033 13.7447 10.6699C13.8013 10.6364 13.8639 10.6145 13.9289 10.6052C13.9939 10.596 14.0601 10.5996 14.1238 10.6159C14.1874 10.6323 14.2472 10.661 14.2997 10.7004C14.3522 10.7398 14.3965 10.7892 14.4299 10.8458C14.4633 10.9023 14.4853 10.9649 14.4946 11.0299C14.5038 11.095 14.5002 11.1612 14.4839 11.2248C14.4675 11.2884 14.4388 11.3482 14.3994 11.4007C13.9718 11.9704 13.3554 12.3694 12.6606 12.5263C11.9658 12.6831 11.2378 12.5876 10.6069 12.2568C9.97608 11.9261 9.48349 11.3816 9.21732 10.7209C8.95115 10.0602 8.92875 9.32633 9.15415 8.65061C9.37954 7.9749 9.83802 7.40143 10.4475 7.03282C11.0571 6.6642 11.7779 6.5245 12.481 6.63869C13.1841 6.75289 13.8236 7.11354 14.2851 7.65612C14.7466 8.19869 15 8.88778 15 9.6001ZM13.9375 9.1001C13.8273 8.66989 13.5771 8.28858 13.2263 8.01628C12.8755 7.74398 12.4441 7.59618 12 7.59618C11.5559 7.59618 11.1245 7.74398 10.7737 8.01628C10.4229 8.28858 10.1727 8.66989 10.0625 9.1001H13.9375Z" fill="#6B6B82"/>
</svg>
