<svg width="16" height="17" viewBox="0 0 16 17" fill="none" xmlns="http://www.w3.org/2000/svg">
<path d="M10.5918 14.6094V12.7464C10.6161 12.4368 10.5743 12.1257 10.4691 11.8336C10.3639 11.5414 10.1977 11.2751 9.9816 11.0521C12.0199 10.8249 14.162 10.0525 14.162 6.50823C14.1618 5.60193 13.8132 4.73039 13.1883 4.07399C13.4842 3.28108 13.4633 2.40465 13.1299 1.62677C13.1299 1.62677 12.3639 1.39957 10.5918 2.58748C9.10398 2.18425 7.53567 2.18425 6.04787 2.58748C4.27574 1.39957 3.50977 1.62677 3.50977 1.62677C3.17636 2.40465 3.15544 3.28108 3.45135 4.07399C2.82177 4.73526 2.4728 5.61468 2.47765 6.5277C2.47765 10.046 4.61978 10.8185 6.65805 11.0716C6.44449 11.2923 6.27978 11.5555 6.17465 11.844C6.06952 12.1326 6.02632 12.44 6.04787 12.7464V14.6094M6.04782 13.3112C4.10043 13.9428 2.4776 13.3112 1.50391 11.3638" stroke="#6B6B82" stroke-linecap="round" stroke-linejoin="round"/>
</svg>
