<svg width="16" height="17" viewBox="0 0 16 17" fill="none" xmlns="http://www.w3.org/2000/svg">
<path d="M8 5.1001C7.40666 5.1001 6.82664 5.27604 6.33329 5.60569C5.83994 5.93533 5.45542 6.40387 5.22836 6.95205C5.0013 7.50023 4.94189 8.10343 5.05764 8.68537C5.1734 9.26731 5.45912 9.80186 5.87868 10.2214C6.29824 10.641 6.83279 10.9267 7.41473 11.0425C7.99667 11.1582 8.59987 11.0988 9.14805 10.8717C9.69623 10.6447 10.1648 10.2602 10.4944 9.76681C10.8241 9.27346 11 8.69344 11 8.1001C10.9992 7.3047 10.6828 6.54212 10.1204 5.97969C9.55798 5.41726 8.7954 5.10092 8 5.1001ZM8 10.1001C7.60444 10.1001 7.21776 9.9828 6.88886 9.76304C6.55996 9.54327 6.30362 9.23092 6.15224 8.86546C6.00087 8.50001 5.96126 8.09788 6.03843 7.70992C6.1156 7.32196 6.30608 6.96559 6.58579 6.68588C6.86549 6.40618 7.22186 6.2157 7.60982 6.13853C7.99778 6.06136 8.39991 6.10096 8.76537 6.25234C9.13082 6.40371 9.44318 6.66006 9.66294 6.98896C9.8827 7.31786 10 7.70454 10 8.1001C10 8.63053 9.78929 9.13924 9.41421 9.51431C9.03914 9.88938 8.53043 10.1001 8 10.1001ZM11 1.6001H5C4.07205 1.60109 3.18238 1.97016 2.52622 2.62632C1.87006 3.28248 1.50099 4.17214 1.5 5.1001V11.1001C1.50099 12.0281 1.87006 12.9177 2.52622 13.5739C3.18238 14.23 4.07205 14.5991 5 14.6001H11C11.928 14.5991 12.8176 14.23 13.4738 13.5739C14.1299 12.9177 14.499 12.0281 14.5 11.1001V5.1001C14.499 4.17214 14.1299 3.28248 13.4738 2.62632C12.8176 1.97016 11.928 1.60109 11 1.6001ZM13.5 11.1001C13.5 11.7631 13.2366 12.399 12.7678 12.8679C12.2989 13.3367 11.663 13.6001 11 13.6001H5C4.33696 13.6001 3.70107 13.3367 3.23223 12.8679C2.76339 12.399 2.5 11.7631 2.5 11.1001V5.1001C2.5 4.43706 2.76339 3.80117 3.23223 3.33233C3.70107 2.86349 4.33696 2.6001 5 2.6001H11C11.663 2.6001 12.2989 2.86349 12.7678 3.33233C13.2366 3.80117 13.5 4.43706 13.5 5.1001V11.1001ZM12 4.8501C12 4.99843 11.956 5.14344 11.8736 5.26678C11.7912 5.39011 11.6741 5.48624 11.537 5.54301C11.4 5.59977 11.2492 5.61463 11.1037 5.58569C10.9582 5.55675 10.8246 5.48532 10.7197 5.38043C10.6148 5.27554 10.5434 5.1419 10.5144 4.99642C10.4855 4.85093 10.5003 4.70013 10.5571 4.56309C10.6139 4.42604 10.71 4.30891 10.8333 4.2265C10.9567 4.14408 11.1017 4.1001 11.25 4.1001C11.4489 4.1001 11.6397 4.17912 11.7803 4.31977C11.921 4.46042 12 4.65119 12 4.8501Z" fill="#6B6B82"/>
</svg>
