<svg width="16" height="17" viewBox="0 0 16 17" fill="none" xmlns="http://www.w3.org/2000/svg">
<path fill-rule="evenodd" clip-rule="evenodd" d="M2.857 2.52877C2.74334 2.52877 2.63433 2.57393 2.55396 2.6543C2.47358 2.73467 2.42843 2.84368 2.42843 2.95735V13.2431C2.42843 13.3567 2.47358 13.4657 2.55396 13.5461C2.63433 13.6265 2.74334 13.6716 2.857 13.6716H13.1427C13.2564 13.6716 13.3654 13.6265 13.4458 13.5461C13.5261 13.4657 13.5713 13.3567 13.5713 13.2431V2.95735C13.5713 2.84368 13.5261 2.73467 13.4458 2.6543C13.3654 2.57393 13.2564 2.52877 13.1427 2.52877H2.857ZM1.94787 2.04821C2.18898 1.80709 2.51601 1.67163 2.857 1.67163H13.1427C13.4837 1.67163 13.8107 1.80709 14.0519 2.04821C14.293 2.28933 14.4284 2.61635 14.4284 2.95735V13.2431C14.4284 13.5841 14.293 13.9111 14.0519 14.1522C13.8107 14.3933 13.4837 14.5288 13.1427 14.5288H2.857C2.51601 14.5288 2.18898 14.3933 1.94787 14.1522C1.70675 13.9111 1.57129 13.5841 1.57129 13.2431V2.95735C1.57129 2.61635 1.70675 2.28933 1.94787 2.04821ZM5.857 5.95735H4.99986V5.1002H5.857V5.95735ZM4.99986 11.1002V6.81449H5.857V11.1002H4.99986ZM7.57129 8.95735V11.1002H6.71415V6.81449H7.57129V7.24305C7.94003 6.96649 8.39068 6.81449 8.857 6.81449C9.42532 6.81449 9.97037 7.04025 10.3722 7.44212C10.7741 7.84398 10.9999 8.38902 10.9999 8.95735V11.1002H10.1427V8.95735C10.1427 8.61635 10.0073 8.28933 9.76614 8.04821C9.52502 7.80709 9.198 7.67163 8.857 7.67163C8.51601 7.67163 8.18898 7.80709 7.94787 8.04821C7.70675 8.28933 7.57129 8.61635 7.57129 8.95735Z" fill="#6B6B82"/>
</svg>
