<svg width="16" height="17" viewBox="0 0 16 17" fill="none" xmlns="http://www.w3.org/2000/svg">
<path d="M13.8538 8.87149L9.35375 13.5965C9.25993 13.695 9.13268 13.7503 9 13.7503C8.86732 13.7503 8.74007 13.695 8.64625 13.5965C8.55243 13.498 8.49972 13.3644 8.49972 13.225C8.49972 13.0857 8.55243 12.9521 8.64625 12.8536L12.2931 9.02505H2.5C2.36739 9.02505 2.24021 8.96974 2.14645 8.87128C2.05268 8.77282 2 8.63929 2 8.50005C2 8.36081 2.05268 8.22727 2.14645 8.12882C2.24021 8.03036 2.36739 7.97505 2.5 7.97505H12.2931L8.64625 4.14649C8.55243 4.04797 8.49972 3.91436 8.49972 3.77505C8.49972 3.63573 8.55243 3.50212 8.64625 3.40361C8.74007 3.3051 8.86732 3.24976 9 3.24976C9.13268 3.24976 9.25993 3.3051 9.35375 3.40361L13.8538 8.12861C13.9002 8.17737 13.9371 8.23527 13.9623 8.299C13.9874 8.36274 14.0004 8.43105 14.0004 8.50005C14.0004 8.56904 13.9874 8.63736 13.9623 8.70109C13.9371 8.76483 13.9002 8.82273 13.8538 8.87149Z" fill="#424257"/>
</svg>
