<svg width="16" height="17" viewBox="0 0 16 17" fill="none" xmlns="http://www.w3.org/2000/svg">
<path d="M15.4624 4.40886C15.4245 4.31749 15.3605 4.23938 15.2783 4.18443C15.196 4.12947 15.0994 4.10013 15.0005 4.10011H13.0986C12.8327 3.64772 12.4543 3.27183 12.0001 3.00898C11.5459 2.74614 11.0315 2.60528 10.5067 2.60011C10.1158 2.59498 9.7278 2.66809 9.36555 2.81514C9.0033 2.96219 8.67411 3.1802 8.39736 3.45636C8.11253 3.73587 7.88646 4.06951 7.73244 4.43766C7.57842 4.80581 7.49955 5.20104 7.50049 5.60011V5.98073C4.98424 5.31698 2.92611 3.27011 2.90424 3.24823C2.83716 3.18056 2.75214 3.13346 2.65919 3.11249C2.56624 3.09151 2.46923 3.09753 2.37959 3.12984C2.28995 3.16215 2.2114 3.21941 2.15321 3.29486C2.09501 3.37031 2.05959 3.46082 2.05111 3.55573C1.78174 6.54261 2.64924 8.54136 3.42611 9.69198C3.80491 10.2608 4.26573 10.7705 4.79361 11.2045C3.84174 12.3001 2.34299 12.8757 2.32674 12.882C2.25618 12.9084 2.19251 12.9504 2.14049 13.0049C2.08846 13.0594 2.04941 13.125 2.02628 13.1967C2.00314 13.2684 1.9965 13.3444 2.00686 13.419C2.01722 13.4936 2.04432 13.5649 2.08611 13.6276C2.13299 13.6976 2.32049 13.9432 2.77861 14.1726C3.34486 14.4564 4.09299 14.6001 5.00049 14.6001C9.41736 14.6001 13.108 11.1989 13.4849 6.82261L15.3542 4.95386C15.4241 4.88389 15.4717 4.79477 15.491 4.69776C15.5102 4.60075 15.5003 4.50021 15.4624 4.40886ZM12.6499 6.24698C12.5641 6.33291 12.5126 6.4471 12.5049 6.56823C12.2505 10.5114 8.95549 13.6001 5.00049 13.6001C4.34049 13.6001 3.87549 13.5126 3.54924 13.4076C4.26861 13.017 5.27174 12.3451 5.91674 11.3776C5.95459 11.3207 5.98039 11.2567 5.99253 11.1894C6.00466 11.1222 6.00289 11.0532 5.98731 10.9866C5.97173 10.9201 5.94268 10.8574 5.90194 10.8026C5.86121 10.7477 5.80967 10.7018 5.75049 10.6676C5.72111 10.6507 3.00611 9.02136 3.00049 4.66761C4.00049 5.48011 5.82861 6.74073 7.91736 7.09198C7.98895 7.10405 8.06231 7.10039 8.13233 7.08124C8.20236 7.0621 8.26738 7.02794 8.32287 6.98113C8.37836 6.93432 8.423 6.87599 8.45367 6.81019C8.48434 6.74439 8.50032 6.6727 8.50049 6.60011V5.60011C8.49993 5.33339 8.55272 5.06925 8.65576 4.82324C8.7588 4.57723 8.91001 4.35431 9.10049 4.16761C9.28309 3.98467 9.5005 3.84019 9.73989 3.74272C9.97928 3.64524 10.2358 3.59675 10.4942 3.60011C11.2855 3.61011 12.0249 4.09261 12.3342 4.80073C12.3732 4.88976 12.4373 4.96549 12.5187 5.01866C12.6001 5.07183 12.6952 5.10013 12.7924 5.10011H13.7924L12.6499 6.24698Z" fill="#6B6B82"/>
</svg>
